# xmcd
# Track frame offsets:
# 150
# 12869
# 28006
# 38802
# 53456
# 67560
# 79582
# 95370
# 108858
# 126579
# 139882
# 154052
# 167604
# 182343
# 196986
#
# Disc length: 2832 seconds
# Revision: 0
# Processed by: cddbd v1.5.2PL0 Copyright (c) Steve Scherf et al.
# Submitted via: VisiTrax 2.11.3.279 - For more info visit www.synapsa.com
#
DISCID=b00b0e0f
DTITLE=The Field Brothers - 1964
DYEAR=2011
DGENRE=Country
TTITLE0=The Field Brothers - If You Should See Her
TTITLE1=The Field Brothers (With Shane Nicholson) - Little One, You Are Loved
TTITLE2=The Field Brothers (With Diannna Corcoran) - We Don't Talk About Love
TTITLE3=The Field Brothers - She's Some Kinda Girl
TTITLE4=The Field Brothers (With Troy Cassar-Daley) - Paddy Takes A Bride
TTITLE5=The Field Brothers - On A Very Extraordinary Monday Morning
TTITLE6=The Field Brothers (With Amber Lawrence) - Honey, We Survived
TTITLE7=The Field Brothers - If You Don't Want Me (Tell Me Now)
TTITLE8=The Field Brothers - Rely On Me
TTITLE9=The Field Brothers - I Wish It Was Summer Again
TTITLE10=The Field Brothers - Permanently Single
TTITLE11=The Field Brothers - A Little Bit Of A Lie
TTITLE12=The Field Brothers - Don't Let Them Get You Down
TTITLE13=The Field Brothers - And Then There's You...
TTITLE14=The Field Brothers - Something So Country About Her
EXTD=
EXTT0=
EXTT1=
EXTT2=
EXTT3=
EXTT4=
EXTT5=
EXTT6=
EXTT7=
EXTT8=
EXTT9=
EXTT10=
EXTT11=
EXTT12=
EXTT13=
EXTT14=
PLAYORDER=
